<svg version="1.0" xmlns="http://www.w3.org/2000/svg" width="933.333" height="933.333" viewBox="0 0 700 700"><path d="M548.7 18.5c-9.4 1.8-20.4 6.2-28.9 11.7-7.8 4.9-298.9 295.2-301.9 301-1 2.1-1.9 5.5-1.9 7.6 0 2.2-11.2 44.1-25 93-13.7 49-25 90.6-25 92.4.1 7.1 5.2 14.3 12.2 17.3 5.5 2.2 8.2 1.9 26.5-3.1 17-4.6 43.5-11.7 66.3-17.9 6.9-1.8 30.8-8.3 53.3-14.4 27.3-7.5 42.4-11.1 45.9-11.1 3.1 0 6.8-.8 9.2-2 2.8-1.3 50.4-48.3 150.7-148.7 127.7-127.9 147.2-147.8 151.4-154.6 9.4-15.4 13.6-34.1 11.5-51.2-1.3-10.6-3.8-18.2-9.3-29-3.8-7.4-6.6-10.5-37.1-41.3-33-33.2-40.3-39.6-51.1-44.2-14.1-6.1-32.4-8.2-46.8-5.5zm22.5 38.6c11 2.3 14.6 5.2 46.6 37.2 25.3 25.4 30.5 31.1 32.7 35.9 3.8 8.3 5 16.6 3.5 24.1-1.9 10-5.8 16.2-17 27.5-5.6 5.7-10.4 10.2-10.5 10C612.5 178.3 519 84.5 519 84c0-1.6 20.9-20.9 24.8-22.9 9.1-4.6 18.1-5.9 27.4-4zm26.5 163.2c-.5 1.6-226.1 226.7-226.9 226.5-.4-.2-24.9-24.4-54.3-53.8L263 339.5l113.7-113.7L490.5 112l53.7 53.7c29.6 29.6 53.7 54.2 53.5 54.6zM330.2 464c-.4.4-18 5.3-39.2 11-21.2 5.7-47.3 12.7-58 15.6-10.7 2.9-19.5 5.2-19.6 5.1 0-.1 7-25.4 15.7-56.2 8.7-30.8 16.1-57.1 16.4-58.4.6-2.2 4.6 1.5 43 39.9 23.4 23.4 42.1 42.7 41.7 43z"/><path d="M494.5 190.4c-4.7 2.2-140.1 138.4-142 142.8-6 14.7 7.8 29.9 23.6 25.8 4-1 10.7-7.5 73.2-69.8 38.3-38.2 69.7-70.3 70.8-72.4 3.4-6.7 2.2-16.3-3-22.2-4.5-5.1-15.8-7.2-22.6-4.2z"/><path d="M19 41.3c-4.7 1.5-10.7 7.8-12 12.5-.7 2.8-.9 96.6-.8 307.8l.3 303.9 2.1 4c1.3 2.5 3.9 5.1 6.9 7l4.8 3h582.2l8.5-2.2c27.6-7.3 48.6-27.6 57.2-55.3l2.3-7.5.3-151.5.2-151.5-2.2-4.5c-3.4-6.6-9.4-10.4-16.6-10.5-7.7 0-12.8 2.7-16.7 9l-3 4.8-.5 150.6-.5 150.6-2.8 5.7c-5.7 11.6-16.4 20.2-28.5 22.7-3.8.8-82.8 1.1-280.2 1.1H45V79h182.3c175.2 0 182.4-.1 186.2-1.9 2.2-1 5.2-3.1 6.7-4.7 9.4-10.1 4.3-27.7-9-31.4-5.4-1.5-387.4-1.2-392.2.3z"/></svg>